<svg xmlns="http://www.w3.org/2000/svg" viewBox="0 0 1200 630" role="img" aria-labelledby="title desc">
  <title id="title">Talkaris social card</title>
  <desc id="desc">Talkaris premium conversational AI platform with governed knowledge, glass interfaces and multi-tenant operations.</desc>
  <defs>
    <linearGradient id="talkaris-bg" x1="0%" y1="0%" x2="100%" y2="100%">
      <stop offset="0%" stop-color="#020617" />
      <stop offset="55%" stop-color="#0f172a" />
      <stop offset="100%" stop-color="#111c38" />
    </linearGradient>
    <linearGradient id="talkaris-mark" x1="0%" y1="0%" x2="100%" y2="100%">
      <stop offset="0%" stop-color="#6366f1" />
      <stop offset="100%" stop-color="#8b5cf6" />
    </linearGradient>
  </defs>

  <rect width="1200" height="630" rx="40" fill="url(#talkaris-bg)" />
  <g fill="#94a3b8" fill-opacity=".12">
    <circle cx="96" cy="96" r="2" />
    <circle cx="120" cy="96" r="2" />
    <circle cx="144" cy="96" r="2" />
    <circle cx="96" cy="120" r="2" />
    <circle cx="120" cy="120" r="2" />
    <circle cx="144" cy="120" r="2" />
    <circle cx="1056" cy="492" r="2" />
    <circle cx="1080" cy="492" r="2" />
    <circle cx="1104" cy="492" r="2" />
    <circle cx="1056" cy="516" r="2" />
    <circle cx="1080" cy="516" r="2" />
    <circle cx="1104" cy="516" r="2" />
  </g>

  <circle cx="178" cy="118" r="150" fill="#6366f1" fill-opacity=".18" />
  <circle cx="1030" cy="514" r="170" fill="#8b5cf6" fill-opacity=".15" />

  <rect x="54" y="54" width="1092" height="522" rx="34" fill="#ffffff" fill-opacity=".04" stroke="#ffffff" stroke-opacity=".12" />
  <rect x="86" y="86" width="1028" height="84" rx="26" fill="#ffffff" fill-opacity=".06" stroke="#ffffff" stroke-opacity=".12" />

  <rect x="110" y="206" width="550" height="308" rx="28" fill="#ffffff" fill-opacity=".06" stroke="#ffffff" stroke-opacity=".12" />
  <rect x="694" y="206" width="396" height="136" rx="28" fill="#ffffff" fill-opacity=".06" stroke="#ffffff" stroke-opacity=".12" />
  <rect x="694" y="366" width="396" height="136" rx="28" fill="#ffffff" fill-opacity=".06" stroke="#ffffff" stroke-opacity=".12" />

  <rect x="140" y="238" width="116" height="116" rx="30" fill="url(#talkaris-mark)" />
  <path d="M174 270h48v14h-17v52h-14v-52h-17z" fill="#ffffff" />

  <text x="286" y="292" fill="#ffffff" font-size="62" font-family="Outfit, Arial, sans-serif" font-weight="800">Talkaris</text>
  <text x="286" y="344" fill="#cbd5e1" font-size="22" font-family="Manrope, Arial, sans-serif">
    Premium conversational AI operations for websites, products and support teams
  </text>

  <rect x="140" y="398" width="456" height="84" rx="22" fill="#ffffff" fill-opacity=".08" stroke="#ffffff" stroke-opacity=".12" />
  <text x="170" y="448" fill="#f8fafc" font-size="24" font-family="Outfit, Arial, sans-serif" font-weight="700">
    Governed knowledge. Premium widget. Multi-tenant control.
  </text>

  <text x="724" y="250" fill="#94a3b8" font-size="16" font-family="Manrope, Arial, sans-serif" letter-spacing="3">GLASS SYSTEM</text>
  <text x="724" y="294" fill="#ffffff" font-size="28" font-family="Outfit, Arial, sans-serif" font-weight="700">Indigo actions, violet AI accents</text>
  <rect x="724" y="316" width="250" height="10" rx="5" fill="#6366f1" />

  <text x="724" y="410" fill="#94a3b8" font-size="16" font-family="Manrope, Arial, sans-serif" letter-spacing="3">OPERATOR UX</text>
  <text x="724" y="454" fill="#ffffff" font-size="28" font-family="Outfit, Arial, sans-serif" font-weight="700">Fast workflows with technical confidence</text>
  <rect x="724" y="476" width="292" height="10" rx="5" fill="#8b5cf6" />
</svg>
