<svg xmlns="http://www.w3.org/2000/svg" viewBox="0 0 1400 1120" role="img" aria-labelledby="title desc">
  <title id="title">Talkaris hero scene</title>
  <desc id="desc">Editorial visual representing Talkaris conversational AI platform with interface panels and structured data flows.</desc>
  <defs>
    <linearGradient id="bg" x1="0%" x2="100%" y1="0%" y2="100%">
      <stop offset="0%" stop-color="#081424" />
      <stop offset="52%" stop-color="#0f2940" />
      <stop offset="100%" stop-color="#123d42" />
    </linearGradient>
    <linearGradient id="emerald" x1="0%" x2="100%" y1="0%" y2="100%">
      <stop offset="0%" stop-color="#4fbba1" />
      <stop offset="100%" stop-color="#1c7a67" />
    </linearGradient>
    <linearGradient id="gold" x1="0%" x2="100%" y1="0%" y2="100%">
      <stop offset="0%" stop-color="#ebd29e" />
      <stop offset="100%" stop-color="#b98c42" />
    </linearGradient>
    <filter id="blur" x="-20%" y="-20%" width="140%" height="140%">
      <feGaussianBlur stdDeviation="80" />
    </filter>
  </defs>

  <rect width="1400" height="1120" rx="64" fill="url(#bg)" />
  <circle cx="300" cy="160" r="220" fill="#4fbba1" opacity="0.18" filter="url(#blur)" />
  <circle cx="1190" cy="220" r="190" fill="#ebd29e" opacity="0.16" filter="url(#blur)" />
  <circle cx="1110" cy="870" r="240" fill="#4fbba1" opacity="0.12" filter="url(#blur)" />

  <g opacity="0.16" stroke="#dce8f6" stroke-width="1">
    <path d="M80 220H1320" />
    <path d="M80 340H1320" />
    <path d="M80 460H1320" />
    <path d="M80 580H1320" />
    <path d="M80 700H1320" />
    <path d="M80 820H1320" />
    <path d="M80 940H1320" />
    <path d="M240 80V1040" />
    <path d="M480 80V1040" />
    <path d="M720 80V1040" />
    <path d="M960 80V1040" />
    <path d="M1200 80V1040" />
  </g>

  <g transform="translate(84 88)">
    <rect width="780" height="944" rx="44" fill="rgba(255,255,255,0.05)" stroke="rgba(255,255,255,0.12)" />
    <rect x="42" y="42" width="696" height="110" rx="28" fill="rgba(255,255,255,0.08)" stroke="rgba(255,255,255,0.14)" />
    <rect x="74" y="72" width="164" height="16" rx="8" fill="#ffffff" opacity="0.75" />
    <rect x="74" y="102" width="256" height="14" rx="7" fill="#cde5e3" opacity="0.65" />
    <rect x="602" y="64" width="88" height="60" rx="24" fill="url(#emerald)" />
    <rect x="42" y="184" width="314" height="324" rx="34" fill="rgba(255,255,255,0.08)" stroke="rgba(255,255,255,0.14)" />
    <rect x="382" y="184" width="356" height="324" rx="34" fill="rgba(255,255,255,0.08)" stroke="rgba(255,255,255,0.14)" />
    <rect x="78" y="228" width="132" height="14" rx="7" fill="#d4f4ec" opacity="0.72" />
    <rect x="78" y="262" width="220" height="16" rx="8" fill="#ffffff" opacity="0.9" />
    <rect x="78" y="298" width="244" height="12" rx="6" fill="#c1d7de" opacity="0.66" />
    <rect x="78" y="346" width="244" height="108" rx="26" fill="url(#emerald)" opacity="0.92" />
    <rect x="424" y="230" width="110" height="14" rx="7" fill="#d4f4ec" opacity="0.72" />
    <rect x="424" y="264" width="230" height="16" rx="8" fill="#ffffff" opacity="0.9" />
    <rect x="424" y="306" width="272" height="76" rx="22" fill="rgba(255,255,255,0.08)" />
    <rect x="424" y="402" width="272" height="64" rx="22" fill="url(#gold)" opacity="0.9" />
    <rect x="42" y="544" width="696" height="360" rx="34" fill="rgba(255,255,255,0.08)" stroke="rgba(255,255,255,0.14)" />
    <path d="M92 820C188 724 254 694 326 682C398 670 500 694 590 626C640 588 676 536 700 506" fill="none" stroke="url(#emerald)" stroke-linecap="round" stroke-width="14" />
    <circle cx="92" cy="820" r="18" fill="#4fbba1" />
    <circle cx="326" cy="682" r="16" fill="#ebd29e" />
    <circle cx="590" cy="626" r="16" fill="#4fbba1" />
    <circle cx="700" cy="506" r="18" fill="#ebd29e" />
    <rect x="78" y="580" width="154" height="14" rx="7" fill="#d4f4ec" opacity="0.7" />
    <rect x="78" y="616" width="250" height="16" rx="8" fill="#ffffff" opacity="0.92" />
  </g>

  <g transform="translate(900 176)">
    <rect width="416" height="306" rx="42" fill="rgba(255,255,255,0.08)" stroke="rgba(255,255,255,0.14)" />
    <rect x="34" y="32" width="148" height="14" rx="7" fill="#d9f2eb" opacity="0.76" />
    <rect x="34" y="64" width="232" height="16" rx="8" fill="#ffffff" opacity="0.9" />
    <rect x="34" y="112" width="348" height="82" rx="26" fill="rgba(255,255,255,0.08)" />
    <rect x="34" y="218" width="168" height="54" rx="24" fill="url(#emerald)" />
    <rect x="220" y="218" width="162" height="54" rx="24" fill="rgba(255,255,255,0.08)" />
  </g>

  <g transform="translate(920 538)">
    <rect width="390" height="448" rx="44" fill="rgba(255,255,255,0.08)" stroke="rgba(255,255,255,0.14)" />
    <rect x="34" y="38" width="138" height="14" rx="7" fill="#d9f2eb" opacity="0.76" />
    <rect x="34" y="72" width="232" height="16" rx="8" fill="#ffffff" opacity="0.9" />
    <rect x="34" y="132" width="322" height="86" rx="28" fill="rgba(255,255,255,0.08)" />
    <rect x="34" y="246" width="322" height="86" rx="28" fill="rgba(255,255,255,0.08)" />
    <rect x="34" y="360" width="322" height="54" rx="26" fill="url(#gold)" />
  </g>
</svg>
