<svg xmlns="http://www.w3.org/2000/svg" viewBox="0 0 1400 1020" role="img" aria-labelledby="title desc">
  <title id="title">Talkaris integration scene</title>
  <desc id="desc">Premium illustration showing Talkaris integrations across website, SaaS and support operations.</desc>
  <defs>
    <linearGradient id="bg2" x1="0%" x2="100%" y1="0%" y2="100%">
      <stop offset="0%" stop-color="#0a1829" />
      <stop offset="52%" stop-color="#11314b" />
      <stop offset="100%" stop-color="#13384b" />
    </linearGradient>
    <linearGradient id="teal2" x1="0%" x2="100%" y1="0%" y2="100%">
      <stop offset="0%" stop-color="#57c9ac" />
      <stop offset="100%" stop-color="#1c7a67" />
    </linearGradient>
    <linearGradient id="gold2" x1="0%" x2="100%" y1="0%" y2="100%">
      <stop offset="0%" stop-color="#f4ddb2" />
      <stop offset="100%" stop-color="#b98c42" />
    </linearGradient>
    <filter id="blur2" x="-20%" y="-20%" width="140%" height="140%">
      <feGaussianBlur stdDeviation="70" />
    </filter>
  </defs>

  <rect width="1400" height="1020" rx="64" fill="url(#bg2)" />
  <circle cx="250" cy="180" r="200" fill="#57c9ac" opacity="0.16" filter="url(#blur2)" />
  <circle cx="1140" cy="140" r="180" fill="#f4ddb2" opacity="0.14" filter="url(#blur2)" />
  <circle cx="1120" cy="880" r="240" fill="#57c9ac" opacity="0.1" filter="url(#blur2)" />

  <g stroke="rgba(255,255,255,0.12)" stroke-width="4" fill="none">
    <path d="M278 330C382 330 418 330 506 330" />
    <path d="M716 330C808 330 870 330 972 330" />
    <path d="M716 330C818 452 872 520 972 640" />
    <path d="M278 690C382 690 418 690 506 690" />
    <path d="M716 690C808 690 870 690 972 690" />
    <path d="M278 330C382 452 418 520 506 640" />
  </g>

  <g transform="translate(128 216)">
    <rect width="230" height="188" rx="34" fill="rgba(255,255,255,0.08)" stroke="rgba(255,255,255,0.14)" />
    <rect x="30" y="30" width="82" height="12" rx="6" fill="#dff4ee" opacity="0.8" />
    <rect x="30" y="58" width="140" height="14" rx="7" fill="#ffffff" opacity="0.92" />
    <rect x="30" y="102" width="170" height="68" rx="20" fill="url(#teal2)" />
  </g>

  <g transform="translate(128 578)">
    <rect width="230" height="188" rx="34" fill="rgba(255,255,255,0.08)" stroke="rgba(255,255,255,0.14)" />
    <rect x="30" y="30" width="82" height="12" rx="6" fill="#dff4ee" opacity="0.8" />
    <rect x="30" y="58" width="150" height="14" rx="7" fill="#ffffff" opacity="0.92" />
    <rect x="30" y="102" width="170" height="68" rx="20" fill="url(#gold2)" />
  </g>

  <g transform="translate(506 176)">
    <rect width="364" height="648" rx="42" fill="rgba(255,255,255,0.08)" stroke="rgba(255,255,255,0.16)" />
    <rect x="36" y="36" width="132" height="14" rx="7" fill="#dff4ee" opacity="0.76" />
    <rect x="36" y="70" width="240" height="16" rx="8" fill="#ffffff" opacity="0.92" />
    <rect x="36" y="118" width="292" height="118" rx="30" fill="rgba(255,255,255,0.08)" />
    <rect x="36" y="266" width="292" height="94" rx="30" fill="url(#teal2)" />
    <rect x="36" y="388" width="292" height="94" rx="30" fill="rgba(255,255,255,0.08)" />
    <rect x="36" y="512" width="292" height="94" rx="30" fill="url(#gold2)" />
  </g>

  <g transform="translate(972 216)">
    <rect width="292" height="188" rx="34" fill="rgba(255,255,255,0.08)" stroke="rgba(255,255,255,0.14)" />
    <rect x="30" y="30" width="82" height="12" rx="6" fill="#dff4ee" opacity="0.8" />
    <rect x="30" y="58" width="150" height="14" rx="7" fill="#ffffff" opacity="0.92" />
    <rect x="30" y="102" width="232" height="68" rx="20" fill="rgba(255,255,255,0.08)" />
  </g>

  <g transform="translate(972 578)">
    <rect width="292" height="188" rx="34" fill="rgba(255,255,255,0.08)" stroke="rgba(255,255,255,0.14)" />
    <rect x="30" y="30" width="82" height="12" rx="6" fill="#dff4ee" opacity="0.8" />
    <rect x="30" y="58" width="160" height="14" rx="7" fill="#ffffff" opacity="0.92" />
    <rect x="30" y="102" width="232" height="68" rx="20" fill="rgba(255,255,255,0.08)" />
  </g>
</svg>
